<?xml version="1.0" encoding="UTF-8" standalone="no"?>
<!DOCTYPE svg PUBLIC "-//W3C//DTD SVG 1.1//EN" "http://www.w3.org/Graphics/SVG/1.1/DTD/svg11.dtd">
<svg width="100%" height="100%" viewBox="0 0 199 162" version="1.1" xmlns="http://www.w3.org/2000/svg" xmlns:xlink="http://www.w3.org/1999/xlink" xml:space="preserve" xmlns:serif="http://www.serif.com/" style="fill-rule:evenodd;clip-rule:evenodd;stroke-linecap:round;stroke-linejoin:round;stroke-miterlimit:1.5;">
    <g transform="matrix(1,0,0,1,-245.208,-636.171)">
        <g transform="matrix(1,0,0,1,1.71487,295.868)">
            <path d="M283.801,500.7C283.801,500.7 283.048,462.55 283.309,459.361C283.761,453.84 280.481,448.379 277.052,454.743C274.65,459.204 267.782,468.07 262.147,467.974C255.881,467.867 244.329,459.698 244.005,442.101C243.682,424.563 250.019,410.819 263.838,412.872C271.57,414.021 276.1,428.357 280.53,426.634C284.959,424.912 283.597,385.022 283.309,380.106C283.169,377.716 325.016,380.202 328.576,379.391C333.397,378.292 334.986,374.818 330.253,371.059C326.71,368.245 317.669,365.442 317.681,358.074C317.694,349.601 328.091,340.105 345.808,340.843C363.525,341.581 371.711,351.488 371.414,358.074C370.951,368.341 357.021,370.412 357.002,374.537C356.994,376.341 356.992,378.915 360.328,380.106C363.341,381.182 398.819,380.166 402.159,380.106C404.257,380.068 401.667,423.189 403.144,425.404C404.62,427.619 410.034,428.111 414.955,421.221C419.876,414.331 424.249,413.31 426.766,413.593C431.447,414.119 443.253,421.959 441.776,442.629C440.3,463.298 432.18,468.22 425.29,468.466C418.4,468.712 411.589,455.446 408.562,453.695C406.681,452.607 403.144,454.194 403.39,458.869C403.636,463.544 401.913,498.24 402.405,500.208C402.898,502.177 363.077,501.388 361.312,499.962C355.655,495.39 374.738,489.145 374.6,480.523C374.49,473.616 368.94,461.084 349.009,460.346C329.078,459.607 315.201,471.172 316.431,479.785C317.661,488.397 330.007,493.198 330.065,497.165C330.101,499.649 328.571,501.204 325.321,501.189C322.358,501.176 283.801,500.7 283.801,500.7Z" style="fill:none;stroke:black;stroke-width:1px;"/>
        </g>
    </g>
</svg>