<?xml version="1.0" encoding="UTF-8" standalone="no"?>
<!-- Created with Inkscape (http://www.inkscape.org/) -->

<svg
   width="512"
   height="512"
   viewBox="0 0 512 512"
   version="1.1"
   id="svg5"
   sodipodi:docname="random.svg"
   inkscape:version="1.1.2 (0a00cf5339, 2022-02-04)"
   xmlns:inkscape="http://www.inkscape.org/namespaces/inkscape"
   xmlns:sodipodi="http://sodipodi.sourceforge.net/DTD/sodipodi-0.dtd"
   xmlns="http://www.w3.org/2000/svg"
   xmlns:svg="http://www.w3.org/2000/svg">
  <sodipodi:namedview
     id="namedview7"
     pagecolor="#ffffff"
     bordercolor="#666666"
     borderopacity="1.0"
     inkscape:pageshadow="2"
     inkscape:pageopacity="0.0"
     inkscape:pagecheckerboard="0"
     inkscape:document-units="px"
     showgrid="false"
     inkscape:zoom="1.6210938"
     inkscape:cx="256"
     inkscape:cy="256"
     inkscape:window-width="1920"
     inkscape:window-height="1008"
     inkscape:window-x="0"
     inkscape:window-y="0"
     inkscape:window-maximized="1"
     inkscape:current-layer="layer1" />
  <defs
     id="defs2" />
  <g
     inkscape:label="Katman 1"
     inkscape:groupmode="layer"
     id="layer1">
    <rect
       style="fill:#0000ff;fill-rule:evenodd"
       id="rect789"
       width="76.346725"
       height="77.639137"
       x="62.785015"
       y="109.31927" />
    <rect
       style="fill:#0000ff;fill-rule:evenodd"
       id="rect791"
       width="79.454781"
       height="85.50087"
       x="284.59906"
       y="275.31784" />
    <path
       sodipodi:type="star"
       style="fill:#ffff00;fill-rule:evenodd"
       id="path815"
       inkscape:flatsided="false"
       sodipodi:sides="5"
       sodipodi:cx="267.07629"
       sodipodi:cy="117.29998"
       sodipodi:r1="71.265053"
       sodipodi:r2="35.632526"
       sodipodi:arg1="0.23394722"
       sodipodi:arg2="0.86226575"
       inkscape:rounded="0"
       inkscape:randomized="0"
       d="m 336.40001,133.82057 -46.13696,10.53586 -17.47657,43.97947 -24.2773,-40.62311 -47.22751,-3.03079 31.13277,-35.64232 -11.71165,-45.8526 43.51841,18.594942 39.98932,-25.30767 -4.23691,47.134618 z"
       inkscape:transform-center-x="-1.7645452"
       inkscape:transform-center-y="5.1051446" />
    <path
       sodipodi:type="star"
       style="fill:#00ff00;fill-rule:evenodd"
       id="path817"
       inkscape:flatsided="true"
       sodipodi:sides="5"
       sodipodi:cx="57.657192"
       sodipodi:cy="371.74133"
       sodipodi:r1="92.980453"
       sodipodi:r2="46.490227"
       sodipodi:arg1="0.45126904"
       sodipodi:arg2="1.0795876"
       inkscape:rounded="0"
       inkscape:randomized="0"
       d="M 141.32978,412.29084 44.948569,463.84918 -33.869757,388.1176 13.79905,289.75458 122.07832,304.69446 Z"
       inkscape:transform-center-x="3.9271807"
       inkscape:transform-center-y="5.0605462" />
    <path
       sodipodi:type="star"
       style="fill:#ff00ff;fill-rule:evenodd"
       id="path821"
       inkscape:flatsided="true"
       sodipodi:sides="8"
       sodipodi:cx="360.28976"
       sodipodi:cy="189.79356"
       sodipodi:r1="42.2635"
       sodipodi:r2="34.191891"
       sodipodi:arg1="0.75041077"
       sodipodi:arg2="1.1431099"
       inkscape:rounded="0"
       inkscape:randomized="0"
       d="m 391.20166,218.6147 -29.43351,13.4165 -30.29953,-11.32574 -13.41649,-29.43351 11.32574,-30.29953 29.43351,-13.41649 30.29952,11.32574 13.4165,29.43351 z"
       inkscape:transform-center-x="2.4930283"
       inkscape:transform-center-y="-1.5905831" />
    <path
       sodipodi:type="star"
       style="fill:#a02c2c"
       id="path845"
       inkscape:flatsided="true"
       sodipodi:sides="8"
       sodipodi:cx="161.76137"
       sodipodi:cy="277.19266"
       sodipodi:r1="76.619789"
       sodipodi:r2="70.787453"
       sodipodi:arg1="0.44837753"
       sodipodi:arg2="0.84107661"
       inkscape:rounded="-2.19"
       inkscape:randomized="0"
       d="M 230.80742,310.40764 C 286.48083,194.67587 65.895987,391.9698 187.09775,349.50213 308.29952,307.03446 12.814611,290.56529 128.54638,346.23871 244.27815,401.91212 46.984225,181.32728 89.451897,302.52904 131.91957,423.73081 148.38873,128.2459 92.71532,243.97767 37.041906,359.70944 257.62675,162.41551 136.42498,204.88319 15.223213,247.35086 310.70812,263.82002 194.97635,208.14661 79.244583,152.4732 276.53851,373.05804 234.07084,251.85627 191.60317,130.6545 175.134,426.13941 230.80742,310.40764 Z" />
    <path
       sodipodi:type="star"
       style="fill:#c8b7b7"
       id="path847"
       inkscape:flatsided="true"
       sodipodi:sides="8"
       sodipodi:cx="419.49097"
       sodipodi:cy="409.39642"
       sodipodi:r1="72.277237"
       sodipodi:r2="66.775459"
       sodipodi:arg1="0.49803494"
       sodipodi:arg2="0.89073402"
       inkscape:rounded="-9.3328123e-16"
       inkscape:randomized="0.204"
       d="m 469.9867,447.07387 -26.71686,17.66296 -50.83098,14.75534 -34.37874,-61.74278 7.59706,-56.50554 19.40015,-20.50946 75.92033,12.71857 22.56572,23.97021 z" />
    <path
       sodipodi:type="star"
       style="fill:#d45500"
       id="path915"
       inkscape:flatsided="true"
       sodipodi:sides="3"
       sodipodi:cx="220.15331"
       sodipodi:cy="403.22647"
       sodipodi:r1="78.094566"
       sodipodi:r2="63.179829"
       sodipodi:arg1="0.34764438"
       sodipodi:arg2="1.3948419"
       inkscape:rounded="0"
       inkscape:randomized="0"
       d="M 293.57609,429.83204 160.40081,453.50968 206.48302,326.33769 Z"
       inkscape:transform-center-x="0.80793004"
       inkscape:transform-center-y="6.6847997" />
    <path
       sodipodi:type="star"
       style="fill:#d45500"
       id="path961"
       inkscape:flatsided="false"
       sodipodi:sides="7"
       sodipodi:cx="377.92416"
       sodipodi:cy="34.756355"
       sodipodi:r1="70.8508"
       sodipodi:r2="30.866823"
       sodipodi:arg1="-0.39554977"
       sodipodi:arg2="0.053249181"
       inkscape:rounded="0"
       inkscape:randomized="0"
       d="M 443.30421,7.4564393 408.74724,36.399212 440.03189,68.851314 395.8576,59.879108 389.99119,104.57199 369.46372,64.441059 330.86377,87.720068 349.44073,46.649823 307.17379,30.985391 350.86634,19.902563 336.76028,-22.909673 372.66705,4.3405116 397.34402,-33.381042 398.42647,11.682211 Z"
       inkscape:transform-center-x="-2.1939223"
       inkscape:transform-center-y="13.494385" />
    <path
       sodipodi:type="star"
       style="fill:#000080"
       id="path965"
       inkscape:flatsided="false"
       sodipodi:sides="7"
       sodipodi:cx="389.99118"
       sodipodi:cy="104.57199"
       sodipodi:r1="35.316051"
       sodipodi:r2="17.658026"
       sodipodi:arg1="0.9501197"
       sodipodi:arg2="1.3989186"
       inkscape:rounded="0"
       inkscape:randomized="0"
       d="m 410.53049,133.30107 -17.51921,-11.33124 -12.67535,16.57273 -2.06393,-20.76198 -20.86003,0.42294 14.94553,-14.55853 -13.33668,-16.045335 20.7007,2.607795 4.22946,-20.431141 10.86782,17.810397 18.61074,-9.431885 -7.14875,19.601406 18.97774,8.669773 -19.78217,6.63216 z"
       inkscape:transform-center-x="-1.3440706"
       inkscape:transform-center-y="-0.412556" />
    <path
       sodipodi:type="spiral"
       style="fill:none;fill-rule:evenodd;stroke:#000000"
       id="path1056"
       sodipodi:cx="81.974998"
       sodipodi:cy="60.200924"
       sodipodi:expansion="1"
       sodipodi:revolution="3"
       sodipodi:radius="81.992401"
       sodipodi:argument="-17.543432"
       sodipodi:t0="0"
       d="m 81.974998,60.200924 c 1.075402,3.967817 -4.817972,3.407201 -6.594773,1.787389 -4.815018,-4.389592 -1.648676,-11.965712 3.019996,-14.976935 8.351158,-5.386373 19.147663,-0.386414 23.359099,7.82738 6.18045,12.054073 -0.85842,26.44686 -12.634767,31.741258 C 73.428538,93.636617 55.334278,84.48748 49.001133,69.137868 41.031516,49.821947 52.321574,27.982469 71.250666,20.632285 94.176333,11.730228 119.78354,25.176911 128.13841,47.689203 137.98433,74.21916 122.37196,103.60728 96.274108,112.95911 66.143111,123.75617 32.965678,105.9724 22.622041,76.287422 10.868943,42.55747 30.82792,5.5850241 64.101111,-5.746807 101.4286,-18.459409 142.20011,3.6774488 154.5175,40.539648 168.19214,81.463676 143.87546,126.03722 103.42366,139.3382" />
  </g>
</svg>
